<svg version="1.1" xmlns="http://www.w3.org/2000/svg" xmlns:xlink="http://www.w3.org/1999/xlink" width="800px" height="800px" viewBox="0,0,256,256"><g fill="#ffffff" fill-rule="nonzero" stroke="none" stroke-width="1" stroke-linecap="butt" stroke-linejoin="miter" stroke-miterlimit="10" stroke-dasharray="" stroke-dashoffset="0" font-family="none" font-weight="none" font-size="none" text-anchor="none" style="mix-blend-mode: normal"><g transform="translate(0,-0.008) scale(8,8)"><path d="M11.163,11.554c0,-2.655 2.166,-4.807 4.837,-4.807c2.671,0 4.837,2.152 4.837,4.807c0,2.655 -2.166,4.806 -4.837,4.806c-2.671,0 -4.837,-2.152 -4.837,-4.806zM7.777,12.154c0,2.011 2.454,6.25 2.454,6.25l5.769,9.614l5.438,-9.613c0,0 2.785,-4.27 2.785,-6.25c0,-4.513 -3.682,-8.171 -8.223,-8.171c-4.541,0 -8.223,3.657 -8.223,8.17z"></path></g></g></svg>