<svg version="1.1" xmlns="http://www.w3.org/2000/svg" xmlns:xlink="http://www.w3.org/1999/xlink" width="800px" height="800px" viewBox="0,0,256,256"><g fill="#ffffff" fill-rule="nonzero" stroke="none" stroke-width="1" stroke-linecap="butt" stroke-linejoin="miter" stroke-miterlimit="10" stroke-dasharray="" stroke-dashoffset="0" font-family="none" font-weight="none" font-size="none" text-anchor="none" style="mix-blend-mode: normal"><g transform="translate(0,-0.00031) scale(0.5,0.5)"><g><path d="M286.249,152.804l46.714,-5.009c9.885,-1.055 17.379,-9.393 17.379,-19.332v-99.062c0,-10.089 -7.713,-18.496 -17.762,-19.388l-114.315,-9.939c-9.174,-0.798 -17.637,4.931 -20.302,13.745c0,0 -8.689,25.397 -13.979,46.214c-14.566,57.185 -22.326,134.25 -22.326,195.967c0,61.725 7.76,138.79 22.326,195.975c5.29,20.817 13.979,46.214 13.979,46.214c2.666,8.814 11.128,14.542 20.302,13.737l114.315,-9.939c10.049,-0.883 17.762,-9.292 17.762,-19.372v-99.07c0,-9.94 -7.494,-18.278 -17.379,-19.34l-46.714,-5.001c-9.26,-0.992 -16.519,-8.416 -17.308,-17.699c0,0 -7.221,-36.899 -7.221,-85.504c0,-48.589 7.221,-85.496 7.221,-85.496c0.789,-9.285 8.048,-16.709 17.308,-17.701z"></path></g></g></g></svg>